<svg width="205" height="56" viewBox="0 0 205 56" fill="none" xmlns="http://www.w3.org/2000/svg">
<rect width="205" height="56" rx="2" fill="#5C5F60"/>
<path d="M65.5 20H81.5C82.6 20 83.5 20.9 83.5 22V34C83.5 35.1 82.6 36 81.5 36H65.5C64.4 36 63.5 35.1 63.5 34V22C63.5 20.9 64.4 20 65.5 20Z" stroke="white" stroke-width="2" stroke-linecap="round" stroke-linejoin="round"/>
<path d="M83.5 22L73.5 29L63.5 22" stroke="white" stroke-width="2" stroke-linecap="round" stroke-linejoin="round"/>
<path d="M94.962 34V22.219H102.153V23.63H96.611V27.132H101.541V28.509H96.611V32.589H102.578V34H94.962ZM109.961 32.368C109.848 32.096 109.695 31.7503 109.502 31.331C109.321 30.9117 109.122 30.4583 108.907 29.971C108.692 29.4837 108.459 28.985 108.21 28.475C107.972 27.9537 107.745 27.4663 107.53 27.013C107.315 26.5483 107.111 26.1347 106.918 25.772C106.737 25.4093 106.589 25.1317 106.476 24.939C106.351 26.2763 106.249 27.727 106.17 29.291C106.091 30.8437 106.023 32.4133 105.966 34H104.351C104.396 32.98 104.447 31.9543 104.504 30.923C104.561 29.8803 104.623 28.8603 104.691 27.863C104.77 26.8543 104.85 25.874 104.929 24.922C105.02 23.97 105.116 23.069 105.218 22.219H106.663C106.969 22.7177 107.298 23.307 107.649 23.987C108 24.667 108.352 25.381 108.703 26.129C109.054 26.8657 109.394 27.608 109.723 28.356C110.052 29.0927 110.352 29.767 110.624 30.379C110.896 29.767 111.196 29.0927 111.525 28.356C111.854 27.608 112.194 26.8657 112.545 26.129C112.896 25.381 113.248 24.667 113.599 23.987C113.95 23.307 114.279 22.7177 114.585 22.219H116.03C116.415 26.0157 116.704 29.9427 116.897 34H115.282C115.225 32.4133 115.157 30.8437 115.078 29.291C114.999 27.727 114.897 26.2763 114.772 24.939C114.659 25.1317 114.506 25.4093 114.313 25.772C114.132 26.1347 113.933 26.5483 113.718 27.013C113.503 27.4663 113.27 27.9537 113.021 28.475C112.783 28.985 112.556 29.4837 112.341 29.971C112.126 30.4583 111.922 30.9117 111.729 31.331C111.548 31.7503 111.4 32.096 111.287 32.368H109.961ZM127.354 34C127.161 33.49 126.98 32.9913 126.81 32.504C126.64 32.0053 126.464 31.501 126.283 30.991H120.945L119.874 34H118.157C118.61 32.7533 119.035 31.603 119.432 30.549C119.828 29.4837 120.214 28.475 120.588 27.523C120.973 26.571 121.353 25.6643 121.727 24.803C122.101 23.9303 122.492 23.069 122.9 22.219H124.413C124.821 23.069 125.212 23.9303 125.586 24.803C125.96 25.6643 126.334 26.571 126.708 27.523C127.093 28.475 127.484 29.4837 127.881 30.549C128.277 31.603 128.702 32.7533 129.156 34H127.354ZM125.807 29.631C125.444 28.645 125.081 27.693 124.719 26.775C124.367 25.8457 123.999 24.956 123.614 24.106C123.217 24.956 122.837 25.8457 122.475 26.775C122.123 27.693 121.772 28.645 121.421 29.631H125.807ZM130.755 22.219H132.404V34H130.755V22.219ZM142.409 32.572V34H135.32V22.219H136.969V32.572H142.409Z" fill="white"/>
</svg>
