<svg width="205" height="56" viewBox="0 0 205 56" fill="none" xmlns="http://www.w3.org/2000/svg">
<rect width="205" height="56" rx="2" fill="#5C5F60"/>
<path d="M21.5 20H37.5C38.6 20 39.5 20.9 39.5 22V34C39.5 35.1 38.6 36 37.5 36H21.5C20.4 36 19.5 35.1 19.5 34V22C19.5 20.9 20.4 20 21.5 20Z" stroke="white" stroke-width="2" stroke-linecap="round" stroke-linejoin="round"/>
<path d="M39.5 22L29.5 29L19.5 22" stroke="white" stroke-width="2" stroke-linecap="round" stroke-linejoin="round"/>
<path d="M52.492 26.659C52.58 26.659 52.679 26.6663 52.789 26.681C52.9063 26.6883 53.02 26.703 53.13 26.725C53.24 26.7397 53.339 26.758 53.427 26.78C53.5223 26.7947 53.592 26.8093 53.636 26.824L53.46 27.715C53.3793 27.6857 53.2437 27.6527 53.053 27.616C52.8697 27.572 52.6313 27.55 52.338 27.55C52.1473 27.55 51.9567 27.572 51.766 27.616C51.5827 27.6527 51.4617 27.6783 51.403 27.693V32.5H50.38V27.022C50.622 26.934 50.9227 26.8533 51.282 26.78C51.6413 26.6993 52.0447 26.659 52.492 26.659ZM56.5592 31.763C56.8012 31.763 57.0138 31.7593 57.1972 31.752C57.3878 31.7373 57.5455 31.7153 57.6702 31.686V29.981C57.5968 29.9443 57.4758 29.915 57.3072 29.893C57.1458 29.8637 56.9478 29.849 56.7132 29.849C56.5592 29.849 56.3942 29.86 56.2182 29.882C56.0495 29.904 55.8918 29.9517 55.7452 30.025C55.6058 30.091 55.4885 30.1863 55.3932 30.311C55.2978 30.4283 55.2502 30.586 55.2502 30.784C55.2502 31.1507 55.3675 31.4073 55.6022 31.554C55.8368 31.6933 56.1558 31.763 56.5592 31.763ZM56.4712 26.637C56.8818 26.637 57.2265 26.692 57.5052 26.802C57.7912 26.9047 58.0185 27.055 58.1872 27.253C58.3632 27.4437 58.4878 27.6747 58.5612 27.946C58.6345 28.21 58.6712 28.5033 58.6712 28.826V32.401C58.5832 32.4157 58.4585 32.4377 58.2972 32.467C58.1432 32.489 57.9672 32.511 57.7692 32.533C57.5712 32.555 57.3548 32.5733 57.1202 32.588C56.8928 32.61 56.6655 32.621 56.4382 32.621C56.1155 32.621 55.8185 32.588 55.5472 32.522C55.2758 32.456 55.0412 32.3533 54.8432 32.214C54.6452 32.0673 54.4912 31.8767 54.3812 31.642C54.2712 31.4073 54.2162 31.125 54.2162 30.795C54.2162 30.4797 54.2785 30.2083 54.4032 29.981C54.5352 29.7537 54.7112 29.5703 54.9312 29.431C55.1512 29.2917 55.4078 29.189 55.7012 29.123C55.9945 29.057 56.3025 29.024 56.6252 29.024C56.7278 29.024 56.8342 29.0313 56.9442 29.046C57.0542 29.0533 57.1568 29.068 57.2522 29.09C57.3548 29.1047 57.4428 29.1193 57.5162 29.134C57.5895 29.1487 57.6408 29.1597 57.6702 29.167V28.881C57.6702 28.7123 57.6518 28.5473 57.6152 28.386C57.5785 28.2173 57.5125 28.0707 57.4172 27.946C57.3218 27.814 57.1898 27.7113 57.0212 27.638C56.8598 27.5573 56.6472 27.517 56.3832 27.517C56.0458 27.517 55.7488 27.5427 55.4922 27.594C55.2428 27.638 55.0558 27.6857 54.9312 27.737L54.8102 26.89C54.9422 26.8313 55.1622 26.7763 55.4702 26.725C55.7782 26.6663 56.1118 26.637 56.4712 26.637ZM62.6032 23.964C62.9039 23.964 63.1606 23.986 63.3732 24.03C63.5932 24.074 63.7472 24.1143 63.8352 24.151L63.6482 25.031C63.5602 24.987 63.4356 24.9467 63.2742 24.91C63.1129 24.866 62.9149 24.844 62.6802 24.844C62.2036 24.844 61.8699 24.976 61.6792 25.24C61.4886 25.4967 61.3932 25.845 61.3932 26.285V26.78H63.5932V27.638H61.3932V32.5H60.3702V26.263C60.3702 25.5297 60.5499 24.965 60.9092 24.569C61.2686 24.1657 61.8332 23.964 62.6032 23.964ZM66.5494 31.763C66.7914 31.763 67.0041 31.7593 67.1874 31.752C67.3781 31.7373 67.5357 31.7153 67.6604 31.686V29.981C67.5871 29.9443 67.4661 29.915 67.2974 29.893C67.1361 29.8637 66.9381 29.849 66.7034 29.849C66.5494 29.849 66.3844 29.86 66.2084 29.882C66.0397 29.904 65.8821 29.9517 65.7354 30.025C65.5961 30.091 65.4787 30.1863 65.3834 30.311C65.2881 30.4283 65.2404 30.586 65.2404 30.784C65.2404 31.1507 65.3577 31.4073 65.5924 31.554C65.8271 31.6933 66.1461 31.763 66.5494 31.763ZM66.4614 26.637C66.8721 26.637 67.2167 26.692 67.4954 26.802C67.7814 26.9047 68.0087 27.055 68.1774 27.253C68.3534 27.4437 68.4781 27.6747 68.5514 27.946C68.6247 28.21 68.6614 28.5033 68.6614 28.826V32.401C68.5734 32.4157 68.4487 32.4377 68.2874 32.467C68.1334 32.489 67.9574 32.511 67.7594 32.533C67.5614 32.555 67.3451 32.5733 67.1104 32.588C66.8831 32.61 66.6557 32.621 66.4284 32.621C66.1057 32.621 65.8087 32.588 65.5374 32.522C65.2661 32.456 65.0314 32.3533 64.8334 32.214C64.6354 32.0673 64.4814 31.8767 64.3714 31.642C64.2614 31.4073 64.2064 31.125 64.2064 30.795C64.2064 30.4797 64.2687 30.2083 64.3934 29.981C64.5254 29.7537 64.7014 29.5703 64.9214 29.431C65.1414 29.2917 65.3981 29.189 65.6914 29.123C65.9847 29.057 66.2927 29.024 66.6154 29.024C66.7181 29.024 66.8244 29.0313 66.9344 29.046C67.0444 29.0533 67.1471 29.068 67.2424 29.09C67.3451 29.1047 67.4331 29.1193 67.5064 29.134C67.5797 29.1487 67.6311 29.1597 67.6604 29.167V28.881C67.6604 28.7123 67.6421 28.5473 67.6054 28.386C67.5687 28.2173 67.5027 28.0707 67.4074 27.946C67.3121 27.814 67.1801 27.7113 67.0114 27.638C66.8501 27.5573 66.6374 27.517 66.3734 27.517C66.0361 27.517 65.7391 27.5427 65.4824 27.594C65.2331 27.638 65.0461 27.6857 64.9214 27.737L64.8004 26.89C64.9324 26.8313 65.1524 26.7763 65.4604 26.725C65.7684 26.6663 66.1021 26.637 66.4614 26.637ZM70.0415 29.651C70.0415 29.145 70.1148 28.705 70.2615 28.331C70.4081 27.9497 70.6025 27.6343 70.8445 27.385C71.0865 27.1357 71.3651 26.9487 71.6805 26.824C71.9958 26.6993 72.3185 26.637 72.6485 26.637C73.4185 26.637 74.0088 26.879 74.4195 27.363C74.8301 27.8397 75.0355 28.5693 75.0355 29.552C75.0355 29.596 75.0355 29.6547 75.0355 29.728C75.0355 29.794 75.0318 29.8563 75.0245 29.915H71.1085C71.1525 30.509 71.3248 30.96 71.6255 31.268C71.9261 31.576 72.3955 31.73 73.0335 31.73C73.3928 31.73 73.6935 31.7007 73.9355 31.642C74.1848 31.576 74.3718 31.5137 74.4965 31.455L74.6395 32.313C74.5148 32.379 74.2948 32.4487 73.9795 32.522C73.6715 32.5953 73.3195 32.632 72.9235 32.632C72.4248 32.632 71.9921 32.5587 71.6255 32.412C71.2661 32.258 70.9691 32.049 70.7345 31.785C70.4998 31.521 70.3238 31.2093 70.2065 30.85C70.0965 30.4833 70.0415 30.0837 70.0415 29.651ZM73.9685 29.09C73.9758 28.628 73.8585 28.2503 73.6165 27.957C73.3818 27.6563 73.0555 27.506 72.6375 27.506C72.4028 27.506 72.1938 27.5537 72.0105 27.649C71.8345 27.737 71.6841 27.8543 71.5595 28.001C71.4348 28.1477 71.3358 28.3163 71.2625 28.507C71.1965 28.6977 71.1525 28.892 71.1305 29.09H73.9685ZM78.221 32.61C77.5903 32.5953 77.143 32.4597 76.879 32.203C76.615 31.9463 76.483 31.5467 76.483 31.004V24.14L77.506 23.964V30.839C77.506 31.0077 77.5207 31.147 77.55 31.257C77.5793 31.367 77.627 31.455 77.693 31.521C77.759 31.587 77.847 31.6383 77.957 31.675C78.067 31.7043 78.2027 31.73 78.364 31.752L78.221 32.61ZM86.2228 32.027C85.9881 32.027 85.7938 31.994 85.6398 31.928C85.4858 31.862 85.3575 31.774 85.2548 31.664C85.0935 31.752 84.8991 31.829 84.6718 31.895C84.4445 31.9537 84.2171 31.983 83.9898 31.983C83.6378 31.983 83.3151 31.928 83.0218 31.818C82.7358 31.708 82.4865 31.5467 82.2738 31.334C82.0611 31.114 81.8961 30.8463 81.7788 30.531C81.6615 30.2157 81.6028 29.849 81.6028 29.431C81.6028 29.079 81.6578 28.749 81.7678 28.441C81.8778 28.1257 82.0391 27.8543 82.2518 27.627C82.4718 27.3923 82.7358 27.209 83.0438 27.077C83.3591 26.945 83.7148 26.879 84.1108 26.879C84.4848 26.879 84.8258 26.9083 85.1338 26.967C85.4491 27.0257 85.6911 27.0843 85.8598 27.143V30.509C85.8598 30.7437 85.9001 30.9087 85.9808 31.004C86.0615 31.0993 86.1678 31.147 86.2998 31.147C86.4905 31.147 86.6555 31.081 86.7948 30.949C86.9415 30.817 87.0588 30.6447 87.1468 30.432C87.2421 30.2193 87.3118 29.981 87.3558 29.717C87.3998 29.4457 87.4218 29.1707 87.4218 28.892C87.4218 28.43 87.3411 27.9973 87.1798 27.594C87.0185 27.1833 86.7875 26.824 86.4868 26.516C86.1861 26.208 85.8195 25.966 85.3868 25.79C84.9615 25.614 84.4811 25.526 83.9458 25.526C83.4105 25.526 82.9191 25.6177 82.4718 25.801C82.0245 25.977 81.6395 26.2337 81.3168 26.571C80.9941 26.901 80.7411 27.308 80.5578 27.792C80.3818 28.276 80.2938 28.826 80.2938 29.442C80.2938 30.0873 80.3891 30.6557 80.5798 31.147C80.7705 31.631 81.0345 32.038 81.3718 32.368C81.7165 32.6907 82.1198 32.9327 82.5818 33.094C83.0511 33.2627 83.5645 33.347 84.1218 33.347C84.5545 33.347 84.9101 33.3213 85.1888 33.27C85.4748 33.2187 85.6581 33.1783 85.7388 33.149L85.8488 33.963C85.7241 34.007 85.4968 34.0547 85.1668 34.106C84.8441 34.1573 84.4958 34.183 84.1218 34.183C83.4691 34.183 82.8531 34.0877 82.2738 33.897C81.6945 33.7137 81.1885 33.4277 80.7558 33.039C80.3231 32.6577 79.9785 32.17 79.7218 31.576C79.4725 30.9747 79.3478 30.2633 79.3478 29.442C79.3478 28.65 79.4725 27.957 79.7218 27.363C79.9711 26.769 80.3048 26.2777 80.7228 25.889C81.1481 25.493 81.6358 25.196 82.1858 24.998C82.7431 24.8 83.3298 24.701 83.9458 24.701C84.5471 24.701 85.1155 24.8 85.6508 24.998C86.1861 25.1887 86.6555 25.471 87.0588 25.845C87.4621 26.2117 87.7811 26.659 88.0158 27.187C88.2505 27.7077 88.3678 28.298 88.3678 28.958C88.3678 29.4567 88.3091 29.8967 88.1918 30.278C88.0818 30.6593 87.9315 30.982 87.7408 31.246C87.5501 31.5027 87.3228 31.697 87.0588 31.829C86.7948 31.961 86.5161 32.027 86.2228 32.027ZM84.0228 31.136C84.1768 31.136 84.3308 31.1213 84.4848 31.092C84.6461 31.0553 84.7891 31.004 84.9138 30.938C84.8918 30.8427 84.8771 30.7473 84.8698 30.652C84.8625 30.5567 84.8588 30.465 84.8588 30.377V27.792C84.8148 27.7773 84.7305 27.7627 84.6058 27.748C84.4811 27.7333 84.3418 27.726 84.1878 27.726C83.6671 27.726 83.2785 27.8873 83.0218 28.21C82.7651 28.5327 82.6368 28.9397 82.6368 29.431C82.6368 29.9517 82.7615 30.366 83.0108 30.674C83.2601 30.982 83.5975 31.136 84.0228 31.136ZM89.965 26.945C90.1996 26.8863 90.5076 26.824 90.889 26.758C91.2776 26.692 91.725 26.659 92.231 26.659C92.5976 26.659 92.9056 26.7103 93.155 26.813C93.4043 26.9083 93.6133 27.0513 93.782 27.242C93.8333 27.2053 93.914 27.154 94.024 27.088C94.134 27.022 94.2696 26.9597 94.431 26.901C94.5923 26.835 94.772 26.78 94.97 26.736C95.168 26.6847 95.3806 26.659 95.608 26.659C96.048 26.659 96.4073 26.725 96.686 26.857C96.9646 26.9817 97.181 27.1613 97.335 27.396C97.4963 27.6307 97.6026 27.9093 97.654 28.232C97.7126 28.5547 97.742 28.9067 97.742 29.288V32.5H96.719V29.508C96.719 29.1707 96.7006 28.881 96.664 28.639C96.6346 28.397 96.5723 28.1953 96.477 28.034C96.389 27.8727 96.2643 27.7553 96.103 27.682C95.949 27.6013 95.7473 27.561 95.498 27.561C95.1533 27.561 94.8673 27.6087 94.64 27.704C94.42 27.792 94.2696 27.8727 94.189 27.946C94.2476 28.1367 94.2916 28.3457 94.321 28.573C94.3503 28.8003 94.365 29.0387 94.365 29.288V32.5H93.342V29.508C93.342 29.1707 93.3236 28.881 93.287 28.639C93.2503 28.397 93.1843 28.1953 93.089 28.034C93.001 27.8727 92.8763 27.7553 92.715 27.682C92.561 27.6013 92.363 27.561 92.121 27.561C92.0183 27.561 91.9083 27.5647 91.791 27.572C91.6736 27.5793 91.56 27.5903 91.45 27.605C91.3473 27.6123 91.252 27.6233 91.164 27.638C91.076 27.6527 91.0173 27.6637 90.988 27.671V32.5H89.965V26.945ZM101.376 31.763C101.618 31.763 101.83 31.7593 102.014 31.752C102.204 31.7373 102.362 31.7153 102.487 31.686V29.981C102.413 29.9443 102.292 29.915 102.124 29.893C101.962 29.8637 101.764 29.849 101.53 29.849C101.376 29.849 101.211 29.86 101.035 29.882C100.866 29.904 100.708 29.9517 100.562 30.025C100.422 30.091 100.305 30.1863 100.21 30.311C100.114 30.4283 100.067 30.586 100.067 30.784C100.067 31.1507 100.184 31.4073 100.419 31.554C100.653 31.6933 100.972 31.763 101.376 31.763ZM101.288 26.637C101.698 26.637 102.043 26.692 102.322 26.802C102.608 26.9047 102.835 27.055 103.004 27.253C103.18 27.4437 103.304 27.6747 103.378 27.946C103.451 28.21 103.488 28.5033 103.488 28.826V32.401C103.4 32.4157 103.275 32.4377 103.114 32.467C102.96 32.489 102.784 32.511 102.586 32.533C102.388 32.555 102.171 32.5733 101.937 32.588C101.709 32.61 101.482 32.621 101.255 32.621C100.932 32.621 100.635 32.588 100.364 32.522C100.092 32.456 99.8576 32.3533 99.6596 32.214C99.4616 32.0673 99.3076 31.8767 99.1976 31.642C99.0876 31.4073 99.0326 31.125 99.0326 30.795C99.0326 30.4797 99.0949 30.2083 99.2196 29.981C99.3516 29.7537 99.5276 29.5703 99.7476 29.431C99.9676 29.2917 100.224 29.189 100.518 29.123C100.811 29.057 101.119 29.024 101.442 29.024C101.544 29.024 101.651 29.0313 101.761 29.046C101.871 29.0533 101.973 29.068 102.069 29.09C102.171 29.1047 102.259 29.1193 102.333 29.134C102.406 29.1487 102.457 29.1597 102.487 29.167V28.881C102.487 28.7123 102.468 28.5473 102.432 28.386C102.395 28.2173 102.329 28.0707 102.234 27.946C102.138 27.814 102.006 27.7113 101.838 27.638C101.676 27.5573 101.464 27.517 101.2 27.517C100.862 27.517 100.565 27.5427 100.309 27.594C100.059 27.638 99.8722 27.6857 99.7476 27.737L99.6266 26.89C99.7586 26.8313 99.9786 26.7763 100.287 26.725C100.595 26.6663 100.928 26.637 101.288 26.637ZM108.883 27.99C108.758 27.8873 108.578 27.7883 108.344 27.693C108.109 27.5977 107.852 27.55 107.574 27.55C107.28 27.55 107.027 27.605 106.815 27.715C106.609 27.8177 106.441 27.9643 106.309 28.155C106.177 28.3383 106.081 28.5583 106.023 28.815C105.964 29.0717 105.935 29.3467 105.935 29.64C105.935 30.3073 106.1 30.8243 106.43 31.191C106.76 31.5503 107.2 31.73 107.75 31.73C108.028 31.73 108.259 31.719 108.443 31.697C108.633 31.6677 108.78 31.6383 108.883 31.609V27.99ZM108.883 24.14L109.906 23.964V32.335C109.671 32.401 109.37 32.467 109.004 32.533C108.637 32.599 108.215 32.632 107.739 32.632C107.299 32.632 106.903 32.5623 106.551 32.423C106.199 32.2837 105.898 32.0857 105.649 31.829C105.399 31.5723 105.205 31.2607 105.066 30.894C104.934 30.52 104.868 30.102 104.868 29.64C104.868 29.2 104.923 28.7967 105.033 28.43C105.15 28.0633 105.319 27.748 105.539 27.484C105.759 27.22 106.026 27.0147 106.342 26.868C106.664 26.7213 107.031 26.648 107.442 26.648C107.772 26.648 108.061 26.692 108.311 26.78C108.567 26.868 108.758 26.9523 108.883 27.033V24.14ZM111.345 29.651C111.345 29.145 111.419 28.705 111.565 28.331C111.712 27.9497 111.906 27.6343 112.148 27.385C112.39 27.1357 112.669 26.9487 112.984 26.824C113.3 26.6993 113.622 26.637 113.952 26.637C114.722 26.637 115.313 26.879 115.723 27.363C116.134 27.8397 116.339 28.5693 116.339 29.552C116.339 29.596 116.339 29.6547 116.339 29.728C116.339 29.794 116.336 29.8563 116.328 29.915H112.412C112.456 30.509 112.629 30.96 112.929 31.268C113.23 31.576 113.699 31.73 114.337 31.73C114.697 31.73 114.997 31.7007 115.239 31.642C115.489 31.576 115.676 31.5137 115.8 31.455L115.943 32.313C115.819 32.379 115.599 32.4487 115.283 32.522C114.975 32.5953 114.623 32.632 114.227 32.632C113.729 32.632 113.296 32.5587 112.929 32.412C112.57 32.258 112.273 32.049 112.038 31.785C111.804 31.521 111.628 31.2093 111.51 30.85C111.4 30.4833 111.345 30.0837 111.345 29.651ZM115.272 29.09C115.28 28.628 115.162 28.2503 114.92 27.957C114.686 27.6563 114.359 27.506 113.941 27.506C113.707 27.506 113.498 27.5537 113.314 27.649C113.138 27.737 112.988 27.8543 112.863 28.001C112.739 28.1477 112.64 28.3163 112.566 28.507C112.5 28.6977 112.456 28.892 112.434 29.09H115.272ZM118.832 32.5H117.809V26.78H118.832V32.5ZM118.315 25.746C118.131 25.746 117.974 25.6873 117.842 25.57C117.717 25.4453 117.655 25.2803 117.655 25.075C117.655 24.8697 117.717 24.7083 117.842 24.591C117.974 24.4663 118.131 24.404 118.315 24.404C118.498 24.404 118.652 24.4663 118.777 24.591C118.909 24.7083 118.975 24.8697 118.975 25.075C118.975 25.2803 118.909 25.4453 118.777 25.57C118.652 25.6873 118.498 25.746 118.315 25.746ZM120.591 26.945C120.826 26.8863 121.137 26.824 121.526 26.758C121.915 26.692 122.362 26.659 122.868 26.659C123.323 26.659 123.7 26.725 124.001 26.857C124.302 26.9817 124.54 27.1613 124.716 27.396C124.899 27.6233 125.028 27.8983 125.101 28.221C125.174 28.5437 125.211 28.8993 125.211 29.288V32.5H124.188V29.508C124.188 29.156 124.162 28.8553 124.111 28.606C124.067 28.3567 123.99 28.155 123.88 28.001C123.77 27.847 123.623 27.737 123.44 27.671C123.257 27.5977 123.029 27.561 122.758 27.561C122.648 27.561 122.534 27.5647 122.417 27.572C122.3 27.5793 122.186 27.5903 122.076 27.605C121.973 27.6123 121.878 27.6233 121.79 27.638C121.709 27.6527 121.651 27.6637 121.614 27.671V32.5H120.591V26.945ZM129.393 32.632C128.931 32.632 128.524 32.5587 128.172 32.412C127.828 32.2653 127.534 32.06 127.292 31.796C127.058 31.532 126.882 31.2203 126.764 30.861C126.647 30.4943 126.588 30.091 126.588 29.651C126.588 29.211 126.651 28.8077 126.775 28.441C126.907 28.0743 127.091 27.759 127.325 27.495C127.56 27.2237 127.846 27.0147 128.183 26.868C128.528 26.714 128.909 26.637 129.327 26.637C129.584 26.637 129.841 26.659 130.097 26.703C130.354 26.747 130.6 26.8167 130.834 26.912L130.603 27.781C130.449 27.7077 130.27 27.649 130.064 27.605C129.866 27.561 129.654 27.539 129.426 27.539C128.854 27.539 128.414 27.7187 128.106 28.078C127.806 28.4373 127.655 28.9617 127.655 29.651C127.655 29.959 127.688 30.2413 127.754 30.498C127.828 30.7547 127.938 30.9747 128.084 31.158C128.238 31.3413 128.433 31.4843 128.667 31.587C128.902 31.6823 129.188 31.73 129.525 31.73C129.797 31.73 130.042 31.7043 130.262 31.653C130.482 31.6017 130.655 31.5467 130.779 31.488L130.922 32.346C130.864 32.3827 130.779 32.4193 130.669 32.456C130.559 32.4853 130.435 32.511 130.295 32.533C130.156 32.5623 130.006 32.5843 129.844 32.599C129.69 32.621 129.54 32.632 129.393 32.632ZM136.93 29.64C136.93 30.0947 136.864 30.5053 136.732 30.872C136.6 31.2387 136.413 31.554 136.171 31.818C135.936 32.082 135.654 32.2873 135.324 32.434C134.994 32.5733 134.635 32.643 134.246 32.643C133.857 32.643 133.498 32.5733 133.168 32.434C132.838 32.2873 132.552 32.082 132.31 31.818C132.075 31.554 131.892 31.2387 131.76 30.872C131.628 30.5053 131.562 30.0947 131.562 29.64C131.562 29.1927 131.628 28.7857 131.76 28.419C131.892 28.045 132.075 27.726 132.31 27.462C132.552 27.198 132.838 26.9963 133.168 26.857C133.498 26.7103 133.857 26.637 134.246 26.637C134.635 26.637 134.994 26.7103 135.324 26.857C135.654 26.9963 135.936 27.198 136.171 27.462C136.413 27.726 136.6 28.045 136.732 28.419C136.864 28.7857 136.93 29.1927 136.93 29.64ZM135.863 29.64C135.863 28.9947 135.716 28.485 135.423 28.111C135.137 27.7297 134.745 27.539 134.246 27.539C133.747 27.539 133.351 27.7297 133.058 28.111C132.772 28.485 132.629 28.9947 132.629 29.64C132.629 30.2853 132.772 30.7987 133.058 31.18C133.351 31.554 133.747 31.741 134.246 31.741C134.745 31.741 135.137 31.554 135.423 31.18C135.716 30.7987 135.863 30.2853 135.863 29.64ZM142.065 27.99C141.941 27.8873 141.761 27.7883 141.526 27.693C141.292 27.5977 141.035 27.55 140.756 27.55C140.463 27.55 140.21 27.605 139.997 27.715C139.792 27.8177 139.623 27.9643 139.491 28.155C139.359 28.3383 139.264 28.5583 139.205 28.815C139.147 29.0717 139.117 29.3467 139.117 29.64C139.117 30.3073 139.282 30.8243 139.612 31.191C139.942 31.5503 140.382 31.73 140.932 31.73C141.211 31.73 141.442 31.719 141.625 31.697C141.816 31.6677 141.963 31.6383 142.065 31.609V27.99ZM142.065 24.14L143.088 23.964V32.335C142.854 32.401 142.553 32.467 142.186 32.533C141.82 32.599 141.398 32.632 140.921 32.632C140.481 32.632 140.085 32.5623 139.733 32.423C139.381 32.2837 139.081 32.0857 138.831 31.829C138.582 31.5723 138.388 31.2607 138.248 30.894C138.116 30.52 138.05 30.102 138.05 29.64C138.05 29.2 138.105 28.7967 138.215 28.43C138.333 28.0633 138.501 27.748 138.721 27.484C138.941 27.22 139.209 27.0147 139.524 26.868C139.847 26.7213 140.214 26.648 140.624 26.648C140.954 26.648 141.244 26.692 141.493 26.78C141.75 26.868 141.941 26.9523 142.065 27.033V24.14ZM144.528 29.651C144.528 29.145 144.601 28.705 144.748 28.331C144.894 27.9497 145.089 27.6343 145.331 27.385C145.573 27.1357 145.851 26.9487 146.167 26.824C146.482 26.6993 146.805 26.637 147.135 26.637C147.905 26.637 148.495 26.879 148.906 27.363C149.316 27.8397 149.522 28.5693 149.522 29.552C149.522 29.596 149.522 29.6547 149.522 29.728C149.522 29.794 149.518 29.8563 149.511 29.915H145.595C145.639 30.509 145.811 30.96 146.112 31.268C146.412 31.576 146.882 31.73 147.52 31.73C147.879 31.73 148.18 31.7007 148.422 31.642C148.671 31.576 148.858 31.5137 148.983 31.455L149.126 32.313C149.001 32.379 148.781 32.4487 148.466 32.522C148.158 32.5953 147.806 32.632 147.41 32.632C146.911 32.632 146.478 32.5587 146.112 32.412C145.752 32.258 145.455 32.049 145.221 31.785C144.986 31.521 144.81 31.2093 144.693 30.85C144.583 30.4833 144.528 30.0837 144.528 29.651ZM148.455 29.09C148.462 28.628 148.345 28.2503 148.103 27.957C147.868 27.6563 147.542 27.506 147.124 27.506C146.889 27.506 146.68 27.5537 146.497 27.649C146.321 27.737 146.17 27.8543 146.046 28.001C145.921 28.1477 145.822 28.3163 145.749 28.507C145.683 28.6977 145.639 28.892 145.617 29.09H148.455ZM152.201 31.906C152.201 32.104 152.135 32.2763 152.003 32.423C151.871 32.5697 151.692 32.643 151.464 32.643C151.237 32.643 151.057 32.5697 150.925 32.423C150.793 32.2763 150.727 32.104 150.727 31.906C150.727 31.708 150.793 31.5357 150.925 31.389C151.057 31.2423 151.237 31.169 151.464 31.169C151.692 31.169 151.871 31.2423 152.003 31.389C152.135 31.5357 152.201 31.708 152.201 31.906ZM156.184 32.632C155.722 32.632 155.315 32.5587 154.963 32.412C154.619 32.2653 154.325 32.06 154.083 31.796C153.849 31.532 153.673 31.2203 153.555 30.861C153.438 30.4943 153.379 30.091 153.379 29.651C153.379 29.211 153.442 28.8077 153.566 28.441C153.698 28.0743 153.882 27.759 154.116 27.495C154.351 27.2237 154.637 27.0147 154.974 26.868C155.319 26.714 155.7 26.637 156.118 26.637C156.375 26.637 156.632 26.659 156.888 26.703C157.145 26.747 157.391 26.8167 157.625 26.912L157.394 27.781C157.24 27.7077 157.061 27.649 156.855 27.605C156.657 27.561 156.445 27.539 156.217 27.539C155.645 27.539 155.205 27.7187 154.897 28.078C154.597 28.4373 154.446 28.9617 154.446 29.651C154.446 29.959 154.479 30.2413 154.545 30.498C154.619 30.7547 154.729 30.9747 154.875 31.158C155.029 31.3413 155.224 31.4843 155.458 31.587C155.693 31.6823 155.979 31.73 156.316 31.73C156.588 31.73 156.833 31.7043 157.053 31.653C157.273 31.6017 157.446 31.5467 157.57 31.488L157.713 32.346C157.655 32.3827 157.57 32.4193 157.46 32.456C157.35 32.4853 157.226 32.511 157.086 32.533C156.947 32.5623 156.797 32.5843 156.635 32.599C156.481 32.621 156.331 32.632 156.184 32.632ZM163.721 29.64C163.721 30.0947 163.655 30.5053 163.523 30.872C163.391 31.2387 163.204 31.554 162.962 31.818C162.727 32.082 162.445 32.2873 162.115 32.434C161.785 32.5733 161.426 32.643 161.037 32.643C160.648 32.643 160.289 32.5733 159.959 32.434C159.629 32.2873 159.343 32.082 159.101 31.818C158.866 31.554 158.683 31.2387 158.551 30.872C158.419 30.5053 158.353 30.0947 158.353 29.64C158.353 29.1927 158.419 28.7857 158.551 28.419C158.683 28.045 158.866 27.726 159.101 27.462C159.343 27.198 159.629 26.9963 159.959 26.857C160.289 26.7103 160.648 26.637 161.037 26.637C161.426 26.637 161.785 26.7103 162.115 26.857C162.445 26.9963 162.727 27.198 162.962 27.462C163.204 27.726 163.391 28.045 163.523 28.419C163.655 28.7857 163.721 29.1927 163.721 29.64ZM162.654 29.64C162.654 28.9947 162.507 28.485 162.214 28.111C161.928 27.7297 161.536 27.539 161.037 27.539C160.538 27.539 160.142 27.7297 159.849 28.111C159.563 28.485 159.42 28.9947 159.42 29.64C159.42 30.2853 159.563 30.7987 159.849 31.18C160.142 31.554 160.538 31.741 161.037 31.741C161.536 31.741 161.928 31.554 162.214 31.18C162.507 30.7987 162.654 30.2853 162.654 29.64ZM165.16 26.945C165.395 26.8863 165.703 26.824 166.084 26.758C166.473 26.692 166.92 26.659 167.426 26.659C167.793 26.659 168.101 26.7103 168.35 26.813C168.6 26.9083 168.809 27.0513 168.977 27.242C169.029 27.2053 169.109 27.154 169.219 27.088C169.329 27.022 169.465 26.9597 169.626 26.901C169.788 26.835 169.967 26.78 170.165 26.736C170.363 26.6847 170.576 26.659 170.803 26.659C171.243 26.659 171.603 26.725 171.881 26.857C172.16 26.9817 172.376 27.1613 172.53 27.396C172.692 27.6307 172.798 27.9093 172.849 28.232C172.908 28.5547 172.937 28.9067 172.937 29.288V32.5H171.914V29.508C171.914 29.1707 171.896 28.881 171.859 28.639C171.83 28.397 171.768 28.1953 171.672 28.034C171.584 27.8727 171.46 27.7553 171.298 27.682C171.144 27.6013 170.943 27.561 170.693 27.561C170.349 27.561 170.063 27.6087 169.835 27.704C169.615 27.792 169.465 27.8727 169.384 27.946C169.443 28.1367 169.487 28.3457 169.516 28.573C169.546 28.8003 169.56 29.0387 169.56 29.288V32.5H168.537V29.508C168.537 29.1707 168.519 28.881 168.482 28.639C168.446 28.397 168.38 28.1953 168.284 28.034C168.196 27.8727 168.072 27.7553 167.91 27.682C167.756 27.6013 167.558 27.561 167.316 27.561C167.214 27.561 167.104 27.5647 166.986 27.572C166.869 27.5793 166.755 27.5903 166.645 27.605C166.543 27.6123 166.447 27.6233 166.359 27.638C166.271 27.6527 166.213 27.6637 166.183 27.671V32.5H165.16V26.945ZM175.845 31.906C175.845 32.104 175.779 32.2763 175.647 32.423C175.515 32.5697 175.335 32.643 175.108 32.643C174.881 32.643 174.701 32.5697 174.569 32.423C174.437 32.2763 174.371 32.104 174.371 31.906C174.371 31.708 174.437 31.5357 174.569 31.389C174.701 31.2423 174.881 31.169 175.108 31.169C175.335 31.169 175.515 31.2423 175.647 31.389C175.779 31.5357 175.845 31.708 175.845 31.906ZM178.365 27.033C178.49 26.9523 178.677 26.868 178.926 26.78C179.183 26.692 179.476 26.648 179.806 26.648C180.217 26.648 180.58 26.7213 180.895 26.868C181.218 27.0147 181.489 27.22 181.709 27.484C181.929 27.748 182.094 28.0633 182.204 28.43C182.321 28.7967 182.38 29.2 182.38 29.64C182.38 30.102 182.31 30.52 182.171 30.894C182.039 31.2607 181.848 31.5723 181.599 31.829C181.35 32.0857 181.049 32.2837 180.697 32.423C180.345 32.5623 179.949 32.632 179.509 32.632C179.032 32.632 178.611 32.599 178.244 32.533C177.877 32.467 177.577 32.401 177.342 32.335V24.14L178.365 23.964V27.033ZM178.365 31.609C178.468 31.6383 178.611 31.6677 178.794 31.697C178.985 31.719 179.219 31.73 179.498 31.73C180.048 31.73 180.488 31.5503 180.818 31.191C181.148 30.8243 181.313 30.3073 181.313 29.64C181.313 29.3467 181.284 29.0717 181.225 28.815C181.166 28.5583 181.071 28.3383 180.939 28.155C180.807 27.9643 180.635 27.8177 180.422 27.715C180.217 27.605 179.967 27.55 179.674 27.55C179.395 27.55 179.139 27.5977 178.904 27.693C178.669 27.7883 178.49 27.8873 178.365 27.99V31.609ZM185.931 26.659C186.019 26.659 186.118 26.6663 186.228 26.681C186.346 26.6883 186.459 26.703 186.569 26.725C186.679 26.7397 186.778 26.758 186.866 26.78C186.962 26.7947 187.031 26.8093 187.075 26.824L186.899 27.715C186.819 27.6857 186.683 27.6527 186.492 27.616C186.309 27.572 186.071 27.55 185.777 27.55C185.587 27.55 185.396 27.572 185.205 27.616C185.022 27.6527 184.901 27.6783 184.842 27.693V32.5H183.819V27.022C184.061 26.934 184.362 26.8533 184.721 26.78C185.081 26.6993 185.484 26.659 185.931 26.659Z" fill="white"/>
</svg>
