<svg width="205" height="56" viewBox="0 0 205 56" fill="none" xmlns="http://www.w3.org/2000/svg">
<rect width="205" height="56" rx="2" fill="url(#paint0_linear_4_54)"/>
<path d="M36 18H26C23.2386 18 21 20.2386 21 23V33C21 35.7614 23.2386 38 26 38H36C38.7614 38 41 35.7614 41 33V23C41 20.2386 38.7614 18 36 18Z" stroke="white" stroke-width="2" stroke-linecap="round" stroke-linejoin="round"/>
<path d="M35 27.37C35.1234 28.2022 34.9813 29.0522 34.5938 29.799C34.2063 30.5458 33.5932 31.1514 32.8416 31.5297C32.0901 31.9079 31.2385 32.0396 30.4078 31.9059C29.5771 31.7723 28.8098 31.3801 28.2149 30.7852C27.6199 30.1902 27.2277 29.4229 27.0941 28.5922C26.9604 27.7615 27.0921 26.9099 27.4703 26.1584C27.8486 25.4069 28.4542 24.7937 29.201 24.4062C29.9478 24.0187 30.7978 23.8766 31.63 24C32.4789 24.1259 33.2649 24.5215 33.8717 25.1283C34.4785 25.7351 34.8741 26.5211 35 27.37Z" stroke="white" stroke-width="2" stroke-linecap="round" stroke-linejoin="round"/>
<path d="M36.5 22.5H36.51" stroke="white" stroke-width="2" stroke-linecap="round" stroke-linejoin="round"/>
<path d="M62.73 33.269C62.3673 33.269 62.067 33.218 61.829 33.116C61.591 33.014 61.3927 32.878 61.234 32.708C60.9847 32.844 60.6843 32.963 60.333 33.065C59.9817 33.1557 59.6303 33.201 59.279 33.201C58.735 33.201 58.2363 33.116 57.783 32.946C57.341 32.776 56.9557 32.5267 56.627 32.198C56.2983 31.858 56.0433 31.4443 55.862 30.957C55.6807 30.4697 55.59 29.903 55.59 29.257C55.59 28.713 55.675 28.203 55.845 27.727C56.015 27.2397 56.2643 26.8203 56.593 26.469C56.933 26.1063 57.341 25.823 57.817 25.619C58.3043 25.415 58.854 25.313 59.466 25.313C60.044 25.313 60.571 25.3583 61.047 25.449C61.5343 25.5397 61.9083 25.6303 62.169 25.721V30.923C62.169 31.2857 62.2313 31.5407 62.356 31.688C62.4807 31.8353 62.645 31.909 62.849 31.909C63.1437 31.909 63.3987 31.807 63.614 31.603C63.8407 31.399 64.022 31.1327 64.158 30.804C64.3053 30.4753 64.413 30.107 64.481 29.699C64.549 29.2797 64.583 28.8547 64.583 28.424C64.583 27.71 64.4583 27.0413 64.209 26.418C63.9597 25.7833 63.6027 25.228 63.138 24.752C62.6733 24.276 62.1067 23.902 61.438 23.63C60.7807 23.358 60.0383 23.222 59.211 23.222C58.3837 23.222 57.6243 23.3637 56.933 23.647C56.2417 23.919 55.6467 24.3157 55.148 24.837C54.6493 25.347 54.2583 25.976 53.975 26.724C53.703 27.472 53.567 28.322 53.567 29.274C53.567 30.2713 53.7143 31.1497 54.009 31.909C54.3037 32.657 54.7117 33.286 55.233 33.796C55.7657 34.2947 56.389 34.6687 57.103 34.918C57.8283 35.1787 58.6217 35.309 59.483 35.309C60.1517 35.309 60.7013 35.2693 61.132 35.19C61.574 35.1107 61.8573 35.0483 61.982 35.003L62.152 36.261C61.9593 36.329 61.608 36.4027 61.098 36.482C60.5993 36.5613 60.061 36.601 59.483 36.601C58.4743 36.601 57.5223 36.4537 56.627 36.159C55.7317 35.8757 54.9497 35.4337 54.281 34.833C53.6123 34.2437 53.0797 33.49 52.683 32.572C52.2977 31.6427 52.105 30.5433 52.105 29.274C52.105 28.05 52.2977 26.979 52.683 26.061C53.0683 25.143 53.584 24.3837 54.23 23.783C54.8873 23.171 55.641 22.712 56.491 22.406C57.3523 22.1 58.259 21.947 59.211 21.947C60.1403 21.947 61.0187 22.1 61.846 22.406C62.6733 22.7007 63.3987 23.137 64.022 23.715C64.6453 24.2817 65.1383 24.973 65.501 25.789C65.8637 26.5937 66.045 27.506 66.045 28.526C66.045 29.2967 65.9543 29.9767 65.773 30.566C65.603 31.1553 65.3707 31.654 65.076 32.062C64.7813 32.4587 64.43 32.759 64.022 32.963C63.614 33.167 63.1833 33.269 62.73 33.269ZM59.33 31.892C59.568 31.892 59.806 31.8693 60.044 31.824C60.2933 31.7673 60.5143 31.688 60.707 31.586C60.673 31.4387 60.6503 31.2913 60.639 31.144C60.6277 30.9967 60.622 30.855 60.622 30.719V26.724C60.554 26.7013 60.4237 26.6787 60.231 26.656C60.0383 26.6333 59.823 26.622 59.585 26.622C58.7803 26.622 58.1797 26.8713 57.783 27.37C57.3863 27.8687 57.188 28.4977 57.188 29.257C57.188 30.0617 57.3807 30.702 57.766 31.178C58.1513 31.654 58.6727 31.892 59.33 31.892ZM67.9733 28.101C67.9733 27.0923 68.1206 26.2027 68.4153 25.432C68.7213 24.6613 69.1293 24.021 69.6393 23.511C70.1606 22.9897 70.7613 22.5987 71.4413 22.338C72.1326 22.0773 72.8636 21.947 73.6343 21.947C74.3936 21.947 75.1076 22.0773 75.7763 22.338C76.4563 22.5987 77.0513 22.9897 77.5613 23.511C78.0713 24.021 78.4736 24.6613 78.7683 25.432C79.0743 26.2027 79.2273 27.0923 79.2273 28.101C79.2273 29.1097 79.0743 29.9993 78.7683 30.77C78.4736 31.5407 78.0713 32.1867 77.5613 32.708C77.0513 33.218 76.4563 33.6033 75.7763 33.864C75.1076 34.1247 74.3936 34.255 73.6343 34.255C72.8636 34.255 72.1326 34.1247 71.4413 33.864C70.7613 33.6033 70.1606 33.218 69.6393 32.708C69.1293 32.1867 68.7213 31.5407 68.4153 30.77C68.1206 29.9993 67.9733 29.1097 67.9733 28.101ZM69.7073 28.101C69.7073 28.815 69.798 29.4667 69.9793 30.056C70.1606 30.634 70.4156 31.127 70.7443 31.535C71.0843 31.943 71.4923 32.2603 71.9683 32.487C72.4556 32.7023 72.9996 32.81 73.6003 32.81C74.201 32.81 74.7393 32.7023 75.2153 32.487C75.6913 32.2603 76.0936 31.943 76.4223 31.535C76.7623 31.127 77.023 30.634 77.2043 30.056C77.3856 29.4667 77.4763 28.815 77.4763 28.101C77.4763 27.387 77.3856 26.741 77.2043 26.163C77.023 25.5737 76.7623 25.075 76.4223 24.667C76.0936 24.259 75.6913 23.9473 75.2153 23.732C74.7393 23.5053 74.201 23.392 73.6003 23.392C72.9996 23.392 72.4556 23.5053 71.9683 23.732C71.4923 23.9473 71.0843 24.259 70.7443 24.667C70.4156 25.075 70.1606 25.5737 69.9793 26.163C69.798 26.741 69.7073 27.387 69.7073 28.101ZM87.4438 29.07C87.6251 29.2967 87.8518 29.597 88.1238 29.971C88.4071 30.3337 88.6961 30.7417 88.9908 31.195C89.2854 31.637 89.5744 32.1017 89.8578 32.589C90.1524 33.0763 90.4018 33.5467 90.6058 34H88.8037C88.5771 33.5693 88.3278 33.133 88.0558 32.691C87.7951 32.249 87.5288 31.8297 87.2568 31.433C86.9848 31.025 86.7128 30.6453 86.4408 30.294C86.1801 29.9427 85.9421 29.6367 85.7268 29.376C85.5794 29.3873 85.4264 29.393 85.2678 29.393C85.1204 29.393 84.9674 29.393 84.8088 29.393H83.3298V34H81.6808V22.389C82.1454 22.2757 82.6611 22.202 83.2278 22.168C83.8058 22.1227 84.3328 22.1 84.8088 22.1C86.4634 22.1 87.7214 22.4117 88.5828 23.035C89.4554 23.6583 89.8918 24.5877 89.8918 25.823C89.8918 26.605 89.6821 27.2737 89.2628 27.829C88.8548 28.3843 88.2484 28.798 87.4438 29.07ZM84.9448 23.545C84.2421 23.545 83.7038 23.562 83.3298 23.596V28.033H84.5028C85.0694 28.033 85.5794 28.0047 86.0328 27.948C86.4861 27.8913 86.8658 27.7837 87.1718 27.625C87.4891 27.4663 87.7328 27.2453 87.9028 26.962C88.0728 26.6673 88.1578 26.282 88.1578 25.806C88.1578 25.364 88.0728 24.9957 87.9028 24.701C87.7328 24.4063 87.5004 24.174 87.2058 24.004C86.9224 23.834 86.5824 23.715 86.1858 23.647C85.8004 23.579 85.3868 23.545 84.9448 23.545ZM100.725 34C100.532 33.49 100.351 32.9913 100.181 32.504C100.011 32.0053 99.8349 31.501 99.6536 30.991H94.3156L93.2446 34H91.5276C91.9809 32.7533 92.4059 31.603 92.8026 30.549C93.1993 29.4837 93.5846 28.475 93.9586 27.523C94.3439 26.571 94.7236 25.6643 95.0976 24.803C95.4716 23.9303 95.8626 23.069 96.2706 22.219H97.7836C98.1916 23.069 98.5826 23.9303 98.9566 24.803C99.3306 25.6643 99.7046 26.571 100.079 27.523C100.464 28.475 100.855 29.4837 101.252 30.549C101.648 31.603 102.073 32.7533 102.527 34H100.725ZM99.1776 29.631C98.8149 28.645 98.4523 27.693 98.0896 26.775C97.7383 25.8457 97.3699 24.956 96.9846 24.106C96.5879 24.956 96.2083 25.8457 95.8456 26.775C95.4943 27.693 95.1429 28.645 94.7916 29.631H99.1776ZM104.126 34V22.219H111.232V23.63H105.775V27.183H110.62V28.577H105.775V34H104.126ZM120.348 34C120.155 33.49 119.974 32.9913 119.804 32.504C119.634 32.0053 119.458 31.501 119.277 30.991H113.939L112.868 34H111.151C111.604 32.7533 112.029 31.603 112.426 30.549C112.822 29.4837 113.208 28.475 113.582 27.523C113.967 26.571 114.347 25.6643 114.721 24.803C115.095 23.9303 115.486 23.069 115.894 22.219H117.407C117.815 23.069 118.206 23.9303 118.58 24.803C118.954 25.6643 119.328 26.571 119.702 27.523C120.087 28.475 120.478 29.4837 120.875 30.549C121.271 31.603 121.696 32.7533 122.15 34H120.348ZM118.801 29.631C118.438 28.645 118.075 27.693 117.713 26.775C117.361 25.8457 116.993 24.956 116.608 24.106C116.211 24.956 115.831 25.8457 115.469 26.775C115.117 27.693 114.766 28.645 114.415 29.631H118.801ZM126.877 22.1C128.532 22.1 129.801 22.4173 130.685 23.052C131.58 23.6753 132.028 24.6103 132.028 25.857C132.028 26.537 131.903 27.1207 131.654 27.608C131.416 28.084 131.065 28.475 130.6 28.781C130.147 29.0757 129.591 29.291 128.934 29.427C128.277 29.563 127.534 29.631 126.707 29.631H125.398V34H123.749V22.389C124.214 22.2757 124.729 22.202 125.296 22.168C125.874 22.1227 126.401 22.1 126.877 22.1ZM127.013 23.545C126.31 23.545 125.772 23.562 125.398 23.596V28.22H126.639C127.206 28.22 127.716 28.186 128.169 28.118C128.622 28.0387 129.002 27.914 129.308 27.744C129.625 27.5627 129.869 27.319 130.039 27.013C130.209 26.707 130.294 26.316 130.294 25.84C130.294 25.3867 130.203 25.0127 130.022 24.718C129.852 24.4233 129.614 24.191 129.308 24.021C129.013 23.8397 128.668 23.715 128.271 23.647C127.874 23.579 127.455 23.545 127.013 23.545ZM141.116 34C140.924 33.49 140.742 32.9913 140.572 32.504C140.402 32.0053 140.227 31.501 140.045 30.991H134.707L133.636 34H131.919C132.373 32.7533 132.798 31.603 133.194 30.549C133.591 29.4837 133.976 28.475 134.35 27.523C134.736 26.571 135.115 25.6643 135.489 24.803C135.863 23.9303 136.254 23.069 136.662 22.219H138.175C138.583 23.069 138.974 23.9303 139.348 24.803C139.722 25.6643 140.096 26.571 140.47 27.523C140.856 28.475 141.247 29.4837 141.643 30.549C142.04 31.603 142.465 32.7533 142.918 34H141.116ZM139.569 29.631C139.207 28.645 138.844 27.693 138.481 26.775C138.13 25.8457 137.762 24.956 137.376 24.106C136.98 24.956 136.6 25.8457 136.237 26.775C135.886 27.693 135.535 28.645 135.183 29.631H139.569ZM150.281 29.07C150.462 29.2967 150.689 29.597 150.961 29.971C151.244 30.3337 151.533 30.7417 151.828 31.195C152.122 31.637 152.411 32.1017 152.695 32.589C152.989 33.0763 153.239 33.5467 153.443 34H151.641C151.414 33.5693 151.165 33.133 150.893 32.691C150.632 32.249 150.366 31.8297 150.094 31.433C149.822 31.025 149.55 30.6453 149.278 30.294C149.017 29.9427 148.779 29.6367 148.564 29.376C148.416 29.3873 148.263 29.393 148.105 29.393C147.957 29.393 147.804 29.393 147.646 29.393H146.167V34H144.518V22.389C144.982 22.2757 145.498 22.202 146.065 22.168C146.643 22.1227 147.17 22.1 147.646 22.1C149.3 22.1 150.558 22.4117 151.42 23.035C152.292 23.6583 152.729 24.5877 152.729 25.823C152.729 26.605 152.519 27.2737 152.1 27.829C151.692 28.3843 151.085 28.798 150.281 29.07ZM147.782 23.545C147.079 23.545 146.541 23.562 146.167 23.596V28.033H147.34C147.906 28.033 148.416 28.0047 148.87 27.948C149.323 27.8913 149.703 27.7837 150.009 27.625C150.326 27.4663 150.57 27.2453 150.74 26.962C150.91 26.6673 150.995 26.282 150.995 25.806C150.995 25.364 150.91 24.9957 150.74 24.701C150.57 24.4063 150.337 24.174 150.043 24.004C149.759 23.834 149.419 23.715 149.023 23.647C148.637 23.579 148.224 23.545 147.782 23.545ZM164.882 28.101C164.882 29.121 164.723 30.0107 164.406 30.77C164.089 31.518 163.641 32.1413 163.063 32.64C162.485 33.1273 161.794 33.4957 160.989 33.745C160.184 33.983 159.3 34.102 158.337 34.102C157.861 34.102 157.334 34.0793 156.756 34.034C156.189 34 155.674 33.9263 155.209 33.813V22.389C155.674 22.2757 156.189 22.202 156.756 22.168C157.334 22.1227 157.861 22.1 158.337 22.1C159.3 22.1 160.184 22.2247 160.989 22.474C161.794 22.712 162.485 23.0803 163.063 23.579C163.641 24.0663 164.089 24.6897 164.406 25.449C164.723 26.197 164.882 27.081 164.882 28.101ZM158.473 32.657C160.037 32.657 161.204 32.2603 161.975 31.467C162.746 30.6623 163.131 29.5403 163.131 28.101C163.131 26.6617 162.746 25.5453 161.975 24.752C161.204 23.9473 160.037 23.545 158.473 23.545C158.008 23.545 157.646 23.5507 157.385 23.562C157.136 23.5733 156.96 23.5847 156.858 23.596V32.606C156.96 32.6173 157.136 32.6287 157.385 32.64C157.646 32.6513 158.008 32.657 158.473 32.657ZM167.328 22.219H168.977V34H167.328V22.219ZM177.181 32.368C177.067 32.096 176.914 31.7503 176.722 31.331C176.54 30.9117 176.342 30.4583 176.127 29.971C175.911 29.4837 175.679 28.985 175.43 28.475C175.192 27.9537 174.965 27.4663 174.75 27.013C174.534 26.5483 174.33 26.1347 174.138 25.772C173.956 25.4093 173.809 25.1317 173.696 24.939C173.571 26.2763 173.469 27.727 173.39 29.291C173.31 30.8437 173.242 32.4133 173.186 34H171.571C171.616 32.98 171.667 31.9543 171.724 30.923C171.78 29.8803 171.843 28.8603 171.911 27.863C171.99 26.8543 172.069 25.874 172.149 24.922C172.239 23.97 172.336 23.069 172.438 22.219H173.883C174.189 22.7177 174.517 23.307 174.869 23.987C175.22 24.667 175.571 25.381 175.923 26.129C176.274 26.8657 176.614 27.608 176.943 28.356C177.271 29.0927 177.572 29.767 177.844 30.379C178.116 29.767 178.416 29.0927 178.745 28.356C179.073 27.608 179.413 26.8657 179.765 26.129C180.116 25.381 180.467 24.667 180.819 23.987C181.17 23.307 181.499 22.7177 181.805 22.219H183.25C183.635 26.0157 183.924 29.9427 184.117 34H182.502C182.445 32.4133 182.377 30.8437 182.298 29.291C182.218 27.727 182.116 26.2763 181.992 24.939C181.878 25.1317 181.725 25.4093 181.533 25.772C181.351 26.1347 181.153 26.5483 180.938 27.013C180.722 27.4663 180.49 27.9537 180.241 28.475C180.003 28.985 179.776 29.4837 179.561 29.971C179.345 30.4583 179.141 30.9117 178.949 31.331C178.767 31.7503 178.62 32.096 178.507 32.368H177.181Z" fill="white"/>
<defs>
<linearGradient id="paint0_linear_4_54" x1="203.719" y1="-2.87515e-06" x2="13.4705" y2="85.851" gradientUnits="userSpaceOnUse">
<stop stop-color="#CD3AA0"/>
<stop offset="0.515625" stop-color="#FE5340"/>
<stop offset="1" stop-color="#FFD353"/>
</linearGradient>
</defs>
</svg>
